<svg xmlns="http://www.w3.org/2000/svg" width="372" height="465" viewBox="0 0 372 465"><rect width="100%" height="100%" fill="#DDDDDD"/><path fill="#999999" d="M122.66 200.505h12.15v65.07h-12.15v-28.44H92.11v28.44H79.96v-65.07h12.15v27.99h30.55zm45.32 18.18q5.13 0 9.33 1.66 4.21 1.67 7.2 4.73 3 3.06 4.62 7.47t1.62 9.85q0 5.5-1.62 9.9-1.62 4.41-4.62 7.52-2.99 3.11-7.2 4.77-4.2 1.66-9.33 1.66-5.18 0-9.41-1.66t-7.22-4.77-4.64-7.52q-1.64-4.4-1.64-9.9 0-5.44 1.64-9.85 1.65-4.41 4.64-7.47t7.22-4.73q4.23-1.66 9.41-1.66m0 39.01q5.76 0 8.52-3.86 2.77-3.88 2.77-11.35 0-7.46-2.77-11.38-2.76-3.91-8.52-3.91-5.85 0-8.67 3.93-2.81 3.94-2.81 11.36 0 7.43 2.81 11.32 2.82 3.89 8.67 3.89m46.66 8.6q-6.03 0-9.25-3.4-3.21-3.4-3.21-9.38v-25.78h-4.73q-.9 0-1.53-.59t-.63-1.75v-4.41l7.43-1.22 2.34-12.6q.22-.9.85-1.39.63-.5 1.62-.5h5.76v14.53h12.33v7.93h-12.33v25.02q0 2.16 1.06 3.37 1.06 1.22 2.9 1.22 1.04 0 1.73-.25.7-.25 1.22-.52t.92-.52q.41-.24.81-.24.5 0 .81.24.32.25.68.74l3.33 5.4q-2.43 2.03-5.58 3.06-3.15 1.04-6.53 1.04m26.87-29.11h20.97q0-2.16-.61-4.08-.61-1.91-1.82-3.35-1.22-1.44-3.09-2.27-1.86-.83-4.34-.83-4.81 0-7.58 2.74t-3.53 7.79m28.35 6.7h-28.58q.27 3.56 1.26 6.14.99 2.59 2.61 4.28t3.85 2.52 4.93.83 4.65-.63q1.96-.63 3.42-1.4 1.47-.76 2.57-1.39t2.14-.63q1.39 0 2.07 1.04l3.19 4.05q-1.84 2.16-4.14 3.62-2.29 1.46-4.79 2.34t-5.09 1.24q-2.58.35-5.01.35-4.82 0-8.96-1.59-4.14-1.6-7.2-4.73t-4.81-7.74q-1.76-4.61-1.76-10.68 0-4.73 1.53-8.89 1.53-4.17 4.39-7.25t6.97-4.88q4.12-1.8 9.3-1.8 4.36 0 8.05 1.4 3.69 1.39 6.35 4.07 2.65 2.68 4.16 6.57t1.51 8.89q0 2.51-.54 3.39t-2.07.88m11.07-45.18h11.11v66.87h-11.11z"/></svg>